<?xml version="1.0" encoding="UTF-8"?>
<svg width="32px" height="32px" viewBox="0 0 32 32" version="1.1" xmlns="http://www.w3.org/2000/svg" xmlns:xlink="http://www.w3.org/1999/xlink">
    <!-- Generator: Sketch 55.2 (78181) - https://sketchapp.com -->
    <title>craft</title>
    <desc>Created with Sketch.</desc>
    <g id="craft" stroke="none" stroke-width="1" fill="none" fill-rule="evenodd">
        <path d="M17.9529368,18.1617071 L10.260065,29.511764 C9.90905511,30.0296437 9.21812626,30.1555039 8.7168322,29.7928806 L5.47259976,27.4460861 C4.9713057,27.0834628 4.8494763,26.3696741 5.20048618,25.8517944 L12.8905559,14.5058717 L12.3783974,14.1353893 C11.9532653,13.8278597 11.6232829,13.3998882 11.4282104,12.9030419 L10.7342419,11.1355158 L7.1348151,10.9833783 C6.34865803,10.9501497 5.73742622,10.2648207 5.76959065,9.4526531 C5.78073104,9.17135281 5.86973499,8.89925538 6.02604556,8.66863489 L10.1204648,2.62773203 C10.5717632,1.96188671 11.4601003,1.80006645 12.1046213,2.26629636 C12.3191545,2.42148423 12.4881286,2.63476215 12.5929771,2.88269563 L14.0279574,6.27597051 L15.7586387,6.34084523 C16.3482569,6.36294712 16.9145031,6.58462442 17.3702235,6.97175763 L24.371235,12.919098 C25.5780477,13.9442821 26.4027091,15.3706796 26.704244,16.9544492 L26.8958431,17.960796 C27.0761105,18.9076248 27.0217329,19.8861691 26.7377653,20.8054651 L25.8754515,23.5970565 C25.7192758,24.1026482 25.1959337,24.381717 24.7065341,24.2203741 C24.3600974,24.1061626 24.1098555,23.7938581 24.0659553,23.4209252 L23.7960933,21.1284433 C23.6230494,19.6584329 22.4165446,18.5522148 20.9831323,18.5493002 L19.2689993,18.5458148 C18.8035253,18.5448684 18.3483626,18.4114464 17.9529388,18.1617043 L17.9529368,18.1617071 Z" id="Path" fill="#000000" fill-rule="nonzero"></path>
    </g>
</svg>