<?xml version="1.0" encoding="UTF-8"?>
<svg width="32px" height="32px" viewBox="0 0 32 32" version="1.1" xmlns="http://www.w3.org/2000/svg" xmlns:xlink="http://www.w3.org/1999/xlink">
    <!-- Generator: Sketch 55.2 (78181) - https://sketchapp.com -->
    <title>fish</title>
    <desc>Created with Sketch.</desc>
    <g id="fish" stroke="none" stroke-width="1" fill="none" fill-rule="evenodd">
        <path d="M24.7088246,12.0328832 C25.0320292,12.3382582 26.7313944,9.38862498 29.5559546,9.12819079 C29.5818259,9.12580538 29.6409507,9.12013467 29.7333292,9.11117866 L29.7333233,9.11111742 C30.1807776,9.06773715 30.5786777,9.39530391 30.622058,9.84275825 C30.6411417,10.0396005 30.5879099,10.2366578 30.4723073,10.3971168 C30.4723073,10.3971168 30.4723073,10.3971168 30.4723073,10.3971168 C29.4506894,11.8151451 28.9492192,13.0979468 28.9492192,14.6374282 C28.9492192,16.2028593 29.2824823,17.5028845 30.3065734,18.8769409 C30.3066969,18.8771066 30.3068215,18.8772734 30.3069471,18.8774416 L30.3069585,18.877433 C30.5573567,19.2124073 30.4887943,19.6869454 30.15382,19.9373435 C30.0050648,20.0485403 29.8206326,20.101193 29.6355923,20.08529 C29.6355923,20.08529 29.6355923,20.08529 29.6355923,20.08529 C25.8929931,19.7636384 25.0529998,16.7532505 24.7088246,17.0784393 L24.6800283,17.1056471 C23.1837902,21.0785244 18.8203733,24 12.8437474,24 C5.68764912,24 1,19.252719 1,14.645064 C1,10.037409 5.68767439,7 12.8437474,7 C19.1502898,7 21.9340765,8.48188906 24.5647178,11.8967258 L24.7088246,12.0328832 Z M6.78947732,15.4604575 C7.98868284,15.4604575 8.960831,14.465261 8.960831,13.2376239 C8.960831,12.0099868 7.98868284,11.0147903 6.78947732,11.0147903 C5.59027179,11.0147903 4.61812363,12.0099868 4.61812363,13.2376239 C4.61812363,14.465261 5.59027179,15.4604575 6.78947732,15.4604575 Z" id="Shape" fill="#000000" fill-rule="nonzero"></path>
    </g>
</svg>