<?xml version="1.0" encoding="UTF-8"?>
<svg width="32px" height="32px" viewBox="0 0 32 32" version="1.1" xmlns="http://www.w3.org/2000/svg" xmlns:xlink="http://www.w3.org/1999/xlink">
    <!-- Generator: Sketch 55.2 (78181) - https://sketchapp.com -->
    <title>fish</title>
    <desc>Created with Sketch.</desc>
    <g id="fish" stroke="none" stroke-width="1" fill="none" fill-rule="evenodd">
        <path d="M6.12768381,24.6219842 C5.49176143,23.7196893 4.40541567,23.1610909 3.21463869,23.2433638 C2.59934766,23.2858754 2.03576919,23.4939959 1.56539676,23.8205626 C2.19549581,21.495297 2.93070172,19.3312648 3.77102874,17.3284774 C4.14647621,17.1070845 4.57879247,16.9670995 5.0447669,16.9349045 C6.24966834,16.8516557 7.33322979,17.5130435 7.83382315,18.5225727 C7.18962762,20.4073767 6.62090942,22.4405139 6.12768381,24.6219842 Z M5.78772831,26.2078203 C5.74464143,26.4200603 5.70222499,26.6336176 5.66047901,26.8484921 L5.65648779,26.8588495 L5.40535314,27.2747391 C4.73468961,28.3853862 3.27977074,28.7485556 2.15570088,28.0859006 C1.43897647,27.6633814 1,26.8995301 1,26.0748961 L1.00082051,26.0677407 C1.07665327,25.7413305 1.15438724,25.4178368 1.23402245,25.0972596 C1.68765903,24.712296 2.26607071,24.4630638 2.90844801,24.4186808 C4.19178606,24.3300126 5.33747194,25.0860853 5.78772831,26.2078203 L5.78772831,26.2078203 Z M8.30705011,17.2008407 C7.67786514,16.2618779 6.56905002,15.6754274 5.35095757,15.7595876 C5.00242827,15.7836681 4.67049152,15.8608861 4.36268881,15.9826698 C5.81272029,12.8335102 7.54286776,10.114013 9.55319324,7.82422767 C12.6656281,4.27912624 15.7801436,2.37716877 18.8997628,2.12041569 L19.2493181,2.12041569 C19.5086719,2.12041569 19.7485133,2.20296095 19.9433994,2.34291253 C21.2692562,2.07938715 23.0835067,1.96967463 25.4001222,2.00713883 C26.6691916,2.02766218 27.6811371,3.06079874 27.6603657,4.31471395 C27.6491466,4.99198591 27.332499,5.62894699 26.7968661,6.05171009 L22.2719389,9.62313444 C21.9786246,9.85464089 21.9307875,10.2772528 22.1650919,10.5670646 C22.2940782,10.7266081 22.489519,10.819506 22.6961844,10.819506 L27.6491191,10.819506 C29.49976,10.8195097 31,12.3018362 31,14.1303778 C31,15.5084545 30.1360765,16.7424294 28.8309757,17.2284779 C26.6065485,18.0569039 23.772496,18.5389456 20.3237218,18.6834196 C18.7723188,18.748412 17.5679807,20.0437398 17.6337565,21.5766162 C17.6339401,21.580893 17.6341336,21.5851692 17.6343371,21.5894447 C17.7733936,21.5735901 17.914825,21.5654411 18.0581826,21.5654411 C20.0782397,21.5654411 21.7158195,23.1834663 21.7158195,25.1794015 C21.7158195,26.3569731 21.1458071,27.403001 20.2635342,28.0628111 L20.434286,28.7714046 C20.555047,29.2725446 20.2683309,29.7818076 19.7737114,29.944712 C19.2693948,30.1108102 18.7174614,29.8923144 18.468734,29.4281061 L18.1282831,28.7927113 C18.104969,28.7931443 18.0816015,28.7933618 18.0581826,28.7933618 C16.0381256,28.7933618 14.4005457,27.1753366 14.4005457,25.1794015 C14.4005457,23.9087129 15.0642702,22.7911944 16.0678592,22.1468386 C16.0410841,21.9805942 16.0240148,21.812822 16.0167858,21.6443534 C15.9131476,19.229113 17.8107338,17.1881611 20.2551649,17.0857574 C23.5449898,16.947942 26.2150197,16.4937988 28.2601568,15.7321444 C28.9349145,15.4808497 29.3815766,14.8428652 29.3815766,14.1303778 C29.3815766,13.1849925 28.6059279,12.4186054 27.6491175,12.4186035 L22.6961844,12.4186035 C21.9974586,12.4186035 21.3366824,12.1045202 20.9005859,11.565111 C20.1084141,10.5852712 20.2701489,9.15644043 21.2618305,8.37372815 L25.7867578,4.8023038 C25.9451844,4.6772612 26.0388407,4.48886426 26.0421591,4.28854439 C26.0483027,3.91766806 25.7489949,3.61209245 25.3736363,3.60602217 C23.1508697,3.57007569 21.4373173,3.67487873 20.2472805,3.91363831 C20.170865,4.03267551 20.0723235,4.13854188 19.9548781,4.22489941 L19.9431114,4.23034039 C16.4895274,5.04972894 13.6912395,7.15528604 11.5472092,10.5486051 C10.3239848,12.4845809 9.24391841,14.7019928 8.30705011,17.2008407 Z M15.7122312,26.2640594 C16.1043017,26.3903841 16.5229062,26.4586795 16.9576547,26.4586795 C18.4969136,26.4586795 19.8337968,25.6025526 20.5071599,24.3459367 C20.1572789,23.3420859 19.192976,22.6208455 18.0581826,22.6208455 C16.6280537,22.6208455 15.4687052,23.76635 15.4687052,25.1794015 C15.4687052,25.5671462 15.5560003,25.9347455 15.7122312,26.2640594 L15.7122312,26.2640594 Z" id="Shape" fill="#000000" fill-rule="nonzero"></path>
    </g>
</svg>