<?xml version="1.0" encoding="UTF-8"?>
<svg width="32px" height="32px" viewBox="0 0 32 32" version="1.1" xmlns="http://www.w3.org/2000/svg" xmlns:xlink="http://www.w3.org/1999/xlink">
    <!-- Generator: Sketch 55.2 (78181) - https://sketchapp.com -->
    <title>fish</title>
    <desc>Created with Sketch.</desc>
    <g id="fish" stroke="none" stroke-width="1" fill="none" fill-rule="evenodd">
        <path d="M11.3991268,22.9203782 C11.3991268,21.658914 10.3938277,20.6362953 9.15372833,20.6362953 C9.07469979,20.6362953 8.99662482,20.6404483 8.91970283,20.6485516 L10.3969233,18.6318096 C8.25105841,16.7995197 6.88765828,14.0554724 6.88765828,10.9886016 C6.88765828,5.47204926 11.2989709,1 16.7406009,1 C19.8084173,1 22.3449566,2.66836493 24.3558168,4.64994746 C26.3254362,6.59088962 29.4756967,12.4545056 28.9394822,17.6363057 C28.6081167,20.8385122 27.2117427,24.1839375 24.5577476,27.6485632 C24.382199,27.877731 24.1690543,28.0743304 23.9277141,28.2296906 C22.7703378,28.9747394 21.2383469,28.6243177 20.5059167,27.4470017 C19.595344,25.9833378 18.8094265,24.8721891 18.1481641,24.1135559 C17.1983473,23.0238785 15.7899027,21.8402814 13.9228304,20.5627646 C13.7166893,20.5005051 13.5133771,20.4315901 13.3131364,20.3562653 L11.3986067,22.9700338 C11.3989529,22.9535245 11.3991268,22.936972 11.3991268,22.9203782 Z M6.01946461,30.3137865 C5.46652716,31.068672 4.41669165,31.2246606 3.67459138,30.662197 C2.9324911,30.0997333 2.77914434,29.0318109 3.3320818,28.2769255 L8.21043737,21.6168603 C8.3213309,21.5997233 8.43488879,21.5908374 8.55048695,21.5908374 C9.76420309,21.5908374 10.7530035,22.5704065 10.7945278,23.794739 L6.01946461,30.3137865 Z M16.7070875,3.31817375 C12.5795927,3.31817375 9.23359699,6.72181533 9.23359699,10.92042 C9.23359699,11.7514017 9.48758883,12.6978557 9.99557249,13.759782 L9.99561041,13.7597638 C10.0477092,13.8686749 10.1782334,13.9147304 10.2871444,13.8626316 C10.3781862,13.8190808 10.4275811,13.7188663 10.4066692,13.6201345 C10.4066692,13.6201345 10.4066692,13.6201345 10.4066692,13.6201345 C11.7222668,11.4479824 14.0819536,9.99996866 16.7741143,9.99996866 C19.41609,9.99996866 21.7378718,11.3945003 23.0669028,13.4994199 C23.1237556,13.5894634 23.1863016,13.6980181 23.2545406,13.8250842 L23.2545622,13.8250727 C23.3788572,14.056519 23.6672425,14.1433823 23.8986888,14.0190873 C24.0016865,13.9637739 24.080707,13.8724669 24.1206654,13.7625968 C24.1206654,13.7625968 24.1206654,13.7625968 24.1206654,13.7625968 C24.4195032,12.9409085 24.5827389,12.0523279 24.5827389,11.1249647 C24.5827389,8.06529746 22.8058355,5.42779827 20.2444814,4.22201804 C19.1914355,3.64537324 17.9868251,3.31817375 16.7070875,3.31817375 Z" id="Shape" fill="#000000" fill-rule="nonzero"></path>
    </g>
</svg>