<?xml version="1.0" encoding="UTF-8"?>
<svg width="32px" height="32px" viewBox="0 0 32 32" version="1.1" xmlns="http://www.w3.org/2000/svg" xmlns:xlink="http://www.w3.org/1999/xlink">
    <!-- Generator: Sketch 55.2 (78181) - https://sketchapp.com -->
    <title>insect</title>
    <desc>Created with Sketch.</desc>
    <g id="insect" stroke="none" stroke-width="1" fill="none" fill-rule="evenodd">
        <path d="M17.6788375,11.0403167 C20.044688,8.32562442 23.5867318,6.27141229 26.0531795,7.19004593 C29.4608653,8.4592457 30.9462817,12.716083 29.3709499,16.6979581 C28.654355,18.5092535 27.7121303,19.8137412 26.2671638,20.728592 C25.4792477,21.2274448 24.5675144,21.5123346 23.6327737,21.6095104 C23.8583758,22.1202646 23.9825148,22.6916858 23.9825148,23.2948395 C23.9825148,25.4655041 22.4529774,27 20.2943009,27 C18.2097404,27 16.3242728,25.5766644 16.1733548,23.516525 L16.1608378,23.5011302 C16.0883662,23.4119962 15.957359,23.3984886 15.868225,23.4709602 C15.8521875,23.4839997 15.8381832,23.4993567 15.8266736,23.516525 C15.6760074,25.584057 13.7903903,27 11.7056991,27 C9.54702263,27 8.01748523,25.4655041 8.01748523,23.2948395 C8.01748523,22.6916858 8.14162425,22.1202646 8.36722627,21.6095104 C7.43248558,21.5123346 6.52075229,21.2274448 5.73283623,20.728592 C4.28786965,19.8137412 3.34564502,18.5092535 2.62905012,16.6979581 C1.05371831,12.716083 2.53913471,8.4592457 5.94682053,7.19004593 C8.26849377,6.32533384 11.5431992,8.0947126 13.8928516,10.5695738 C13.2146104,8.77005166 12.5121693,7.49417028 11.8013094,6.75175059 C10.8001768,5.70617126 10.0004888,5.45800009 9.24702294,5.82335447 C8.82455679,6.02820762 8.31084207,5.86214133 8.09960899,5.45243502 C7.88837592,5.04272871 8.05961416,4.54452984 8.48208031,4.33967668 C10.0092328,3.59916293 11.5851888,4.08823718 13.0547261,5.62301682 C14.0822635,6.69617333 15.0125905,8.49790385 15.8721461,11.044662 C16.7317017,8.49790385 17.6620288,6.69617333 18.6895662,5.62301682 C20.1591035,4.08823718 21.7350595,3.59916293 23.2622119,4.33967668 C23.6846781,4.54452984 23.8559163,5.04272871 23.6446832,5.45243502 C23.4334502,5.86214133 22.9197354,6.02820762 22.4972693,5.82335447 C21.7438034,5.45800009 20.9441154,5.70617126 19.9429829,6.75175059 C19.1716344,7.55734421 18.4101986,8.99104871 17.6788375,11.0403167 Z" id="Combined-Shape" fill="#000000" fill-rule="nonzero"></path>
    </g>
</svg>