<?xml version="1.0" encoding="UTF-8"?>
<svg width="32px" height="32px" viewBox="0 0 32 32" version="1.1" xmlns="http://www.w3.org/2000/svg" xmlns:xlink="http://www.w3.org/1999/xlink">
    <!-- Generator: Sketch 55.2 (78181) - https://sketchapp.com -->
    <title>fish</title>
    <desc>Created with Sketch.</desc>
    <g id="fish" stroke="none" stroke-width="1" fill="none" fill-rule="evenodd">
        <path d="M13.4681368,9.65752615 C16.7375333,10.4520112 18.9224839,11.32961 20.0229885,12.2903226 C21.1657526,13.2879266 21.8956152,15.0354935 22.2125764,17.5330234 C22.2534722,17.8552661 22.5270212,18.0967785 22.8511136,18.0967742 L23.8689516,18.0967742 C23.8797748,18.0967742 23.8905963,18.0965006 23.9014058,18.0959536 C24.2564445,18.0779884 24.5297301,17.7749457 24.5118111,17.4190887 C24.437873,15.9511414 24.1216754,14.5641334 23.5632184,13.2580645 C24.6787721,14.0034806 25.5526561,15.1526076 26.1848704,16.7054454 C26.2011424,16.7454125 26.2213752,16.7836418 26.2452647,16.8195586 C26.4424577,17.1160296 26.8420988,17.196142 27.1378873,16.9984932 L27.9710503,16.4417713 C28.2261439,16.271317 28.325892,15.9441881 28.2094441,15.6599259 C28.0477699,15.2652333 27.8457345,14.8841366 27.6033378,14.5166357 C29.1224933,16.4692373 30,18.8619029 30,21.483871 C30,28.9543204 24.2147451,31 16.1609195,31 C8.42893304,31 2,28.3091592 2,21.8064516 C2,16.1219972 7.03575785,10.8853915 13.4681368,9.65752615 L13.4681368,9.65752615 Z M24.8061781,11.8686428 C24.5154395,11.6811308 24.2083993,11.4991101 23.8850575,11.3225806 C21.5299257,10.0367894 18.6967775,9.28795153 15.3856131,9.07606703 C15.241817,7.5933827 15.3929728,6.19168294 15.8390805,4.87096774 C16.65044,2.4689131 18.091954,1 20.9885057,1 C23.8850575,1 25.4942529,2.93548387 25.4942529,5.51612903 C28.0689655,6.16129032 28.5479804,8.24775312 27.4252874,10.0322581 C26.909737,10.8517181 26.0367006,11.4638464 24.8061781,11.8686428 L24.8061781,11.8686428 Z M11.3864832,21.843023 L14.6814201,24.3350597 C14.7972881,24.4226934 14.9393067,24.4685008 15.0844202,24.4650455 C15.4398135,24.456583 15.7210724,24.1609558 15.7126294,23.8047436 L15.6449721,20.9502527 L18.5302379,19.2641593 C18.7023709,19.1635681 18.8183214,18.9887464 18.8442395,18.7907306 C18.8904806,18.4374451 18.6422303,18.1134784 18.2897569,18.0671307 L15.3027126,17.6743563 L15.0463331,14.2806235 C15.0353532,14.13528 14.9755927,13.9979463 14.8767876,13.890996 C14.6352562,13.6295535 14.2280024,13.6138635 13.967161,13.8559515 L11.1545348,16.4663603 L8.22361301,16.180077 C8.0914718,16.1671699 7.9585813,16.1955342 7.84315142,16.2612831 C7.5340797,16.4373306 7.42591418,16.8311748 7.60155697,17.1409586 L9.13198691,19.8402012 L7.88924048,22.6863324 C7.802968,22.8839132 7.82090349,23.1116349 7.93703776,23.2932004 C8.12890162,23.5931624 8.52704624,23.6804349 8.82631866,23.488129 L11.3864832,21.843023 Z" id="Shape" fill="#000000" fill-rule="nonzero"></path>
    </g>
</svg>